<svg width="124" height="24" viewBox="0 0 124 24" fill="none" xmlns="http://www.w3.org/2000/svg">
<rect width="24.4474" height="24" rx="4" fill="white"/>
<path fill-rule="evenodd" clip-rule="evenodd" d="M2.142 2.35955C1.92973 2.9125 1.98541 6.39136 2.212 6.74932C2.35428 6.97386 2.66223 7.02636 3.26314 6.92886C5.09678 6.63136 6.92087 4.76068 7.167 2.92545L7.29109 2H4.78564C2.71041 2 2.25632 2.06182 2.142 2.35955ZM10.539 2.28409C10.4911 2.44045 10.3947 2.97477 10.325 3.47159C10.1279 4.87227 8.91291 7.1125 7.84678 8.04091C6.68268 9.05477 4.822 9.92091 3.40087 10.1107C2.82018 10.1882 2.26973 10.3639 2.17791 10.5009C1.89473 10.9234 1.98087 13.2898 2.28814 13.5316C2.4445 13.6548 3.07859 13.8216 3.69768 13.9023C6.95268 14.3275 9.95291 17.353 10.3372 20.5977C10.4986 21.9589 10.6922 22.0707 12.6938 21.9566L13.9272 21.8864L14.1088 20.7982C14.3561 19.3155 15.1936 17.5289 16.1636 16.4159C17.0925 15.3498 19.205 14.15 20.5268 13.938C22.642 13.5984 22.4859 13.7641 22.4115 11.9384L22.345 10.2998L21.2854 10.1489C18.2509 9.71682 15.4656 7.44068 14.547 4.64227C14.2734 3.80886 14.0495 2.87318 14.0495 2.56341C14.0495 2.01364 14.0081 2 12.3379 2C11.1665 2 10.5986 2.08977 10.539 2.28409ZM17.3529 2.21455C17.1331 2.56977 17.6143 4.06864 18.2443 4.99227C18.8845 5.93068 20.9711 7.08091 21.8161 6.96136C22.3313 6.88818 22.345 6.82523 22.345 4.5V2.11364L19.9197 2.04932C18.4606 2.01068 17.4381 2.07636 17.3529 2.21455ZM14.032 10.2055L15.9011 12.0473L15.3731 12.3977C15.0827 12.5907 14.2629 13.357 13.5513 14.1011L12.2577 15.4539L10.8643 13.9643C10.0977 13.145 9.27359 12.412 9.03291 12.3357C8.38814 12.1309 8.47882 11.9564 9.70632 11.04C10.3177 10.5836 11.1102 9.79705 11.4677 9.29182C11.8252 8.78659 12.1277 8.37114 12.1402 8.36841C12.1525 8.36591 13.0038 9.1925 14.032 10.2055ZM2.27109 17.0511C1.90632 17.4159 1.91109 21.3616 2.27678 21.7273C2.452 21.9025 3.34905 22 4.78382 22C6.60768 22 7.04359 21.9343 7.15564 21.642C7.38768 21.0375 6.79132 19.5175 5.96268 18.6002C4.82973 17.3461 2.8195 16.5027 2.27109 17.0511ZM21.2086 16.9866C19.4561 17.41 18.2436 18.5057 17.5668 20.278C16.935 21.9323 17.065 22.0257 19.8977 21.9509L22.345 21.8864V19.4052C22.345 17.937 22.2522 16.9034 22.1177 16.873C21.9927 16.8448 21.5836 16.8959 21.2086 16.9866Z" fill="black"/>
<path d="M44.9426 22C44.3035 22 43.6909 21.9112 43.1051 21.7337C42.5192 21.5561 41.9865 21.3165 41.5072 21.0146C41.0456 20.7128 40.655 20.3666 40.3354 19.976C40.0336 19.5677 39.8294 19.1505 39.7229 18.7244L40.655 18.4048L40.4153 21.6804H36.4473V2H40.7349V10.9481L39.8561 10.6285C39.9626 10.1669 40.1668 9.74079 40.4686 9.3502C40.7704 8.94185 41.1521 8.58677 41.6137 8.28495C42.0753 7.96538 42.5813 7.71682 43.1317 7.53928C43.6821 7.36174 44.2502 7.27297 44.8361 7.27297C46.0611 7.27297 47.1441 7.59254 48.0851 8.23169C49.0438 8.85308 49.7984 9.72304 50.3487 10.8415C50.8991 11.9423 51.1743 13.2028 51.1743 14.6232C51.1743 16.0613 50.8991 17.3395 50.3487 18.4581C49.8161 19.5588 49.0793 20.4288 48.1383 21.0679C47.1974 21.6893 46.1321 22 44.9426 22ZM43.8241 18.4048C44.4632 18.4048 45.0225 18.245 45.5019 17.9254C45.9812 17.6059 46.3452 17.1709 46.5937 16.6205C46.86 16.0524 46.9932 15.3866 46.9932 14.6232C46.9932 13.8775 46.86 13.2206 46.5937 12.6525C46.3452 12.0843 45.9812 11.6494 45.5019 11.3475C45.0225 11.0457 44.4632 10.8948 43.8241 10.8948C43.1672 10.8948 42.5991 11.0457 42.1197 11.3475C41.6403 11.6494 41.2675 12.0843 41.0012 12.6525C40.7349 13.2206 40.6017 13.8775 40.6017 14.6232C40.6017 15.3866 40.7349 16.0524 41.0012 16.6205C41.2675 17.1709 41.6403 17.6059 42.1197 17.9254C42.5991 18.245 43.1672 18.4048 43.8241 18.4048Z" fill="#FEFEFE"/>
<path d="M60.2976 21.9734C58.7352 21.9734 57.377 21.6627 56.223 21.0413C55.069 20.4021 54.1724 19.5411 53.5332 18.4581C52.8941 17.3573 52.5745 16.1056 52.5745 14.7031C52.5745 13.6201 52.7521 12.6258 53.1071 11.7204C53.4622 10.8149 53.9593 10.0337 54.5985 9.37683C55.2376 8.70217 55.9922 8.1873 56.8621 7.83222C57.7498 7.45939 58.7174 7.27297 59.7649 7.27297C60.7592 7.27297 61.6646 7.45051 62.4813 7.80559C63.3157 8.16067 64.0348 8.65779 64.6384 9.29694C65.2421 9.93609 65.7037 10.6906 66.0232 11.5606C66.3428 12.4305 66.4849 13.3804 66.4493 14.4101L66.4227 15.5553H55.1577L54.5452 13.1585H62.9607L62.5079 13.6644V13.1318C62.4724 12.688 62.3304 12.2974 62.0818 11.9601C61.851 11.605 61.5403 11.3298 61.1497 11.1345C60.7592 10.9392 60.3153 10.8415 59.8182 10.8415C59.1258 10.8415 58.531 10.9836 58.0339 11.2676C57.5545 11.534 57.1906 11.9334 56.942 12.466C56.6935 12.9809 56.5692 13.6201 56.5692 14.3835C56.5692 15.1647 56.729 15.8482 57.0485 16.4341C57.3859 17.0022 57.8652 17.4461 58.4866 17.7656C59.1258 18.0852 59.8803 18.245 60.7503 18.245C61.3539 18.245 61.8865 18.1562 62.3481 17.9787C62.8275 17.8012 63.3424 17.4993 63.8928 17.0732L65.8901 19.8961C65.3397 20.3755 64.7538 20.7661 64.1324 21.0679C63.511 21.3697 62.8719 21.5917 62.215 21.7337C61.5758 21.8935 60.9367 21.9734 60.2976 21.9734Z" fill="#FEFEFE"/>
<path d="M68.7746 21.7071V2H73.0356V21.7071H68.7746Z" fill="#FEFEFE"/>
<path d="M81.3796 21.9467C80.1901 21.9467 79.1249 21.636 78.1839 21.0146C77.2607 20.3755 76.5239 19.5055 75.9735 18.4048C75.4231 17.2863 75.148 16.0257 75.148 14.6232C75.148 13.1851 75.4231 11.9157 75.9735 10.8149C76.5239 9.71416 77.2785 8.85308 78.2372 8.23169C79.1959 7.59254 80.2878 7.27297 81.5128 7.27297C82.1875 7.27297 82.8 7.37062 83.3504 7.56591C83.9185 7.76121 84.4156 8.0364 84.8417 8.39148C85.2678 8.72881 85.6318 9.12827 85.9336 9.58988C86.2354 10.0337 86.4573 10.5131 86.5994 11.028L85.7205 10.9214V7.56591H89.9549V21.7071H85.6406V18.2983L86.5994 18.2716C86.4573 18.7688 86.2265 19.2392 85.9069 19.6831C85.5874 20.1269 85.1968 20.5175 84.7352 20.8549C84.2736 21.1922 83.7587 21.4585 83.1906 21.6538C82.6224 21.8491 82.0188 21.9467 81.3796 21.9467ZM82.5514 18.3515C83.2083 18.3515 83.7765 18.2006 84.2558 17.8988C84.7352 17.597 85.108 17.1709 85.3743 16.6205C85.6406 16.0524 85.7738 15.3866 85.7738 14.6232C85.7738 13.8597 85.6406 13.2028 85.3743 12.6525C85.108 12.0843 84.7352 11.6494 84.2558 11.3475C83.7765 11.028 83.2083 10.8682 82.5514 10.8682C81.9123 10.8682 81.353 11.028 80.8737 11.3475C80.4121 11.6494 80.0481 12.0843 79.7818 12.6525C79.5155 13.2028 79.3823 13.8597 79.3823 14.6232C79.3823 15.3866 79.5155 16.0524 79.7818 16.6205C80.0481 17.1709 80.4121 17.597 80.8737 17.8988C81.353 18.2006 81.9123 18.3515 82.5514 18.3515Z" fill="#FEFEFE"/>
<path d="M93.2985 21.7071V7.56591H97.3465L97.4796 10.4421L96.6274 10.7617C96.8227 10.1225 97.1689 9.54549 97.6661 9.03063C98.1809 8.498 98.7934 8.0719 99.5036 7.75233C100.214 7.43276 100.959 7.27297 101.741 7.27297C102.806 7.27297 103.702 7.49489 104.43 7.93875C105.158 8.36485 105.709 9.01287 106.082 9.88282C106.454 10.735 106.641 11.7825 106.641 13.0253V21.7071H102.353V13.3715C102.353 12.8034 102.273 12.3329 102.113 11.9601C101.954 11.5872 101.705 11.312 101.368 11.1345C101.048 10.9392 100.649 10.8504 100.169 10.8682C99.7966 10.8682 99.4503 10.9303 99.1308 11.0546C98.8112 11.1611 98.536 11.3298 98.3052 11.5606C98.0744 11.7736 97.888 12.0222 97.746 12.3063C97.6217 12.5903 97.5595 12.901 97.5595 13.2383V21.7071H95.4557C94.9586 21.7071 94.5325 21.7071 94.1774 21.7071C93.8223 21.7071 93.5294 21.7071 93.2985 21.7071Z" fill="#FEFEFE"/>
<path d="M115.14 22C113.915 22 112.823 21.6893 111.864 21.0679C110.923 20.4288 110.178 19.5588 109.627 18.4581C109.077 17.3395 108.802 16.0701 108.802 14.6498C108.802 13.2295 109.077 11.9689 109.627 10.8682C110.178 9.74967 110.932 8.87084 111.891 8.23169C112.85 7.59254 113.95 7.27297 115.193 7.27297C115.832 7.27297 116.445 7.37062 117.031 7.56591C117.617 7.76121 118.149 8.02752 118.629 8.36485C119.108 8.70217 119.498 9.09276 119.8 9.53662C120.102 9.96272 120.28 10.4066 120.333 10.8682L119.321 11.1079V2H123.609V21.7071H119.641L119.401 18.4847L120.253 18.6178C120.2 19.0617 120.022 19.4878 119.72 19.8961C119.436 20.3045 119.064 20.6684 118.602 20.988C118.14 21.2898 117.608 21.5295 117.004 21.7071C116.418 21.9024 115.797 22 115.14 22ZM116.232 18.4581C116.889 18.4581 117.457 18.2983 117.936 17.9787C118.415 17.6591 118.779 17.2153 119.028 16.6471C119.294 16.079 119.427 15.4132 119.427 14.6498C119.427 13.8686 119.294 13.194 119.028 12.6258C118.779 12.0577 118.415 11.6138 117.936 11.2943C117.457 10.9747 116.889 10.8149 116.232 10.8149C115.575 10.8149 115.007 10.9747 114.527 11.2943C114.066 11.6138 113.702 12.0577 113.435 12.6258C113.169 13.194 113.036 13.8686 113.036 14.6498C113.036 15.4132 113.169 16.079 113.435 16.6471C113.702 17.2153 114.066 17.6591 114.527 17.9787C115.007 18.2983 115.575 18.4581 116.232 18.4581Z" fill="#FEFEFE"/>
</svg>
