<?xml version="1.0" encoding="UTF-8"?>
<svg xmlns="http://www.w3.org/2000/svg" xmlns:xlink="http://www.w3.org/1999/xlink" width="24px" height="24px" viewBox="0 0 24 24" version="1.1">
<g id="surface1">
<path style=" stroke:none;fill-rule:nonzero;fill:rgb(0%,0%,0%);fill-opacity:1;" d="M 9.140625 3.6875 C 9.140625 5.710938 9.125 7.359375 9.109375 7.359375 C 9.085938 7.359375 8.699219 7.242188 8.25 7.097656 C 7.800781 6.957031 7.117188 6.746094 6.734375 6.628906 C 6.355469 6.511719 6.015625 6.40625 5.976562 6.394531 C 5.9375 6.375 5.578125 6.769531 4.972656 7.496094 L 4.03125 8.621094 L 4.03125 11.429688 C 4.03125 12.96875 4.015625 16.039062 4 18.25 L 3.96875 22.261719 L 3.660156 22.335938 C 3.492188 22.378906 3.148438 22.476562 2.90625 22.554688 C 2.664062 22.632812 2.410156 22.707031 2.34375 22.71875 C 2.28125 22.730469 2.109375 22.800781 1.96875 22.875 C 1.828125 22.953125 1.507812 23.109375 1.261719 23.222656 C 0.84375 23.417969 0.0664062 23.898438 0.101562 23.933594 C 0.113281 23.945312 0.449219 23.867188 0.847656 23.765625 C 2.019531 23.46875 3.5 23.210938 5.273438 22.996094 C 5.804688 22.929688 6.726562 22.847656 8.226562 22.730469 C 9.253906 22.65625 13.449219 22.621094 14.71875 22.683594 C 18.003906 22.84375 20.921875 23.21875 23.136719 23.761719 C 23.546875 23.863281 23.886719 23.9375 23.898438 23.929688 C 23.90625 23.925781 23.726562 23.792969 23.507812 23.648438 C 23.0625 23.347656 22.351562 23.015625 21.65625 22.777344 C 21.414062 22.691406 21.1875 22.609375 21.160156 22.585938 C 21.097656 22.542969 20.671875 22.40625 20.484375 22.378906 C 20.417969 22.363281 20.304688 22.335938 20.226562 22.3125 C 19.960938 22.226562 19.359375 22.078125 19.328125 22.082031 C 19.304688 22.085938 19.246094 22.085938 19.191406 22.082031 L 19.09375 22.078125 L 19.0625 16.320312 L 19.03125 10.570312 L 18.882812 10.4375 C 18.582031 10.191406 16.875 9 16.8125 9 C 16.777344 9 16.246094 9.210938 15.632812 9.46875 C 15.019531 9.726562 14.5 9.9375 14.480469 9.9375 C 14.457031 9.9375 14.4375 9.132812 14.4375 8.152344 L 14.4375 6.359375 L 11.875 3.289062 C 10.457031 1.597656 9.265625 0.171875 9.226562 0.121094 C 9.148438 0.0273438 9.144531 0.21875 9.140625 3.6875 Z M 11.832031 5.007812 L 13.40625 6.894531 L 13.40625 11.792969 L 12.632812 12.722656 C 11.960938 13.523438 11.863281 13.664062 11.914062 13.730469 C 11.949219 13.773438 12.300781 14.1875 12.695312 14.664062 L 13.40625 15.523438 L 13.40625 21.464844 L 10.171875 21.464844 L 10.171875 12.277344 C 10.171875 7.027344 10.191406 3.09375 10.214844 3.101562 C 10.238281 3.109375 10.964844 3.964844 11.832031 5.007812 Z M 7.007812 7.984375 C 7.367188 8.09375 7.996094 8.289062 8.40625 8.417969 L 9.140625 8.648438 L 9.132812 15.09375 L 9.117188 21.539062 L 8.671875 21.570312 C 8.183594 21.613281 6.675781 21.78125 6.4375 21.824219 L 6.28125 21.851562 L 6.28125 14.816406 C 6.28125 10.949219 6.296875 7.78125 6.320312 7.78125 C 6.335938 7.78125 6.648438 7.875 7.007812 7.984375 Z M 16.78125 16.039062 L 16.78125 21.71875 L 16.539062 21.6875 C 16.402344 21.675781 15.871094 21.628906 15.367188 21.582031 L 14.4375 21.5 L 14.4375 14.992188 L 13.894531 14.339844 C 13.59375 13.976562 13.359375 13.660156 13.375 13.625 C 13.386719 13.597656 13.632812 13.292969 13.917969 12.953125 L 14.4375 12.332031 L 14.4375 11.273438 L 15.578125 10.800781 C 16.199219 10.539062 16.726562 10.332031 16.75 10.34375 C 16.765625 10.355469 16.78125 12.917969 16.78125 16.039062 Z M 16.78125 16.039062 "/>
<path style=" stroke:none;fill-rule:nonzero;fill:rgb(0%,0%,0%);fill-opacity:1;" d="M 11.257812 9.945312 L 11.273438 11.835938 L 11.804688 11.851562 L 12.328125 11.863281 L 12.328125 8.0625 L 11.25 8.0625 Z M 11.257812 9.945312 "/>
<path style=" stroke:none;fill-rule:nonzero;fill:rgb(0%,0%,0%);fill-opacity:1;" d="M 11.25 17.578125 L 11.25 19.453125 L 12.328125 19.453125 L 12.328125 15.703125 L 11.25 15.703125 Z M 11.25 17.578125 "/>
</g>
</svg>
